<?xml version="1.0" encoding="UTF-8"?>
<svg width="16px" height="16px" viewBox="0 0 16 16" version="1.1" xmlns="http://www.w3.org/2000/svg" xmlns:xlink="http://www.w3.org/1999/xlink">
    <!-- Generator: Sketch 48.2 (47327) - http://www.bohemiancoding.com/sketch -->
    <title>Group 11</title>
    <desc>Created with Sketch.</desc>
    <defs></defs>
    <g id="Artboard-Copy-2" stroke="none" stroke-width="1" fill="none" fill-rule="evenodd" transform="translate(-495.000000, -658.000000)" opacity="0.607620018">
        <g id="Group-8" transform="translate(38.000000, 558.890625)" stroke="#868686">
            <g id="Group-11" transform="translate(457.423828, 99.808594)">
                <g id="Group-13">
                    <path d="M6.39409722,1.67989289 L6.39409722,2.30097622 L6.03672204,2.40733628 C5.68087552,2.51324138 5.33779296,2.65569228 5.0122686,2.83208699 L4.68428335,3.00981521 L4.24467915,2.57021101 C3.78387648,2.10940834 3.03586296,2.11040667 2.57313481,2.57313481 C2.10775792,3.03851171 2.1078341,3.78230224 2.57021101,4.24467915 L3.00981521,4.68428335 L2.83208699,5.0122686 C2.65569228,5.33779296 2.51324138,5.68087552 2.40733628,6.03672204 L2.30097622,6.39409722 L1.67989289,6.39409722 C1.02821951,6.39409722 0.5,6.92372858 0.5,7.578125 C0.5,8.23626731 1.02599319,8.76215278 1.67989289,8.76215278 L2.30097622,8.76215278 L2.40733628,9.11952796 C2.51324138,9.47537448 2.65569228,9.81845704 2.83208699,10.1439814 L3.00981521,10.4719666 L2.57021101,10.9115708 C2.10940834,11.3723735 2.11040667,12.120387 2.57313481,12.5831152 C3.03851171,13.0484921 3.78230224,13.0484159 4.24467915,12.586039 L4.68428335,12.1464348 L5.0122686,12.324163 C5.33779296,12.5005577 5.68087552,12.6430086 6.03672204,12.7489137 L6.39409722,12.8552738 L6.39409722,13.4763571 C6.39409722,14.1280305 6.92372858,14.65625 7.578125,14.65625 C8.23626731,14.65625 8.76215278,14.1302568 8.76215278,13.4763571 L8.76215278,12.8552738 L9.11952796,12.7489137 C9.47537448,12.6430086 9.81845704,12.5005577 10.1439814,12.324163 L10.4719666,12.1464348 L10.9115708,12.586039 C11.3723735,13.0468417 12.120387,13.0458433 12.5831152,12.5831152 C13.0484921,12.1177383 13.0484159,11.3739478 12.586039,10.9115708 L12.1464348,10.4719666 L12.324163,10.1439814 C12.5005577,9.81845704 12.6430086,9.47537448 12.7489137,9.11952796 L12.8552738,8.76215278 L13.4763571,8.76215278 C14.1280305,8.76215278 14.65625,8.23252142 14.65625,7.578125 C14.65625,6.91998269 14.1302568,6.39409722 13.4763571,6.39409722 L12.8552738,6.39409722 L12.7489137,6.03672204 C12.6430086,5.68087552 12.5005577,5.33779296 12.324163,5.0122686 L12.1464348,4.68428335 L12.586039,4.24467915 C13.0468417,3.78387648 13.0458433,3.03586296 12.5831152,2.57313481 C12.1177383,2.10775792 11.3739478,2.1078341 10.9115708,2.57021101 L10.4719666,3.00981521 L10.1439814,2.83208699 C9.81845704,2.65569228 9.47537448,2.51324138 9.11952796,2.40733628 L8.76215278,2.30097622 L8.76215278,1.67989289 C8.76215278,1.02821951 8.23252142,0.5 7.578125,0.5 C6.91998269,0.5 6.39409722,1.02599319 6.39409722,1.67989289 Z" id="Combined-Shape"></path>
                    <circle id="Oval-15" cx="7.578125" cy="7.578125" r="1.68402778"></circle>
                </g>
            </g>
        </g>
    </g>
</svg>