<?xml version="1.0" encoding="UTF-8"?>
<svg viewBox="0 0 19 19" version="1.1" xmlns="http://www.w3.org/2000/svg" xmlns:xlink="http://www.w3.org/1999/xlink">
    <!-- Generator: Sketch 48.2 (47327) - http://www.bohemiancoding.com/sketch -->
    <title>Group</title>
    <desc>Created with Sketch.</desc>
    <defs></defs>
    <g id="Artboard" stroke="none" stroke-width="1" fill="none" fill-rule="evenodd" transform="translate(-20.000000, -343.000000)">
        <g id="Group" transform="translate(20.142383, 343.303467)" stroke="#979797" stroke-width="1.35">
            <path d="M7.71152344,1.90063477 L7.71152344,2.89634315 L7.22906694,3.03992922 C6.81135543,3.16424625 6.40862208,3.33146468 6.02648841,3.53853477 L5.58370832,3.77846786 L4.87910242,3.07386196 C4.4397626,2.63452214 3.72745199,2.63452214 3.28811217,3.07386196 L3.0022311,3.35974303 C2.56289128,3.79908285 2.56289128,4.51139346 3.0022311,4.95073328 L3.706837,5.65533918 L3.46690391,6.09811927 C3.25983382,6.48025293 3.09261539,6.88298629 2.96829836,7.3006978 L2.82471229,7.7831543 L1.82900391,7.7831543 C1.20768356,7.7831543 0.704003906,8.28683395 0.704003906,8.9081543 L0.704003906,9.31245117 C0.704003906,9.93377152 1.20768356,10.4374512 1.82900391,10.4374512 L2.82471229,10.4374512 L2.96829836,10.9199077 C3.09261539,11.3376192 3.25983382,11.7403525 3.46690391,12.1224862 L3.706837,12.5652663 L3.0022311,13.2698722 C2.56289128,13.709212 2.56289128,14.4215226 3.0022311,14.8608624 L3.28811217,15.1467435 C3.72745199,15.5860833 4.4397626,15.5860833 4.87910242,15.1467435 L5.58370832,14.4421376 L6.02648841,14.6820707 C6.40862208,14.8891408 6.81135543,15.0563592 7.22906694,15.1806762 L7.71152344,15.3242623 L7.71152344,16.3199707 C7.71152344,16.941291 8.21520309,17.4449707 8.83652344,17.4449707 L9.24082031,17.4449707 C9.86214066,17.4449707 10.3658203,16.941291 10.3658203,16.3199707 L10.3658203,15.3242623 L10.8482768,15.1806762 C11.2659883,15.0563592 11.6687217,14.8891408 12.0508553,14.6820707 L12.4936354,14.4421376 L13.1982413,15.1467435 C13.6375812,15.5860833 14.3498918,15.5860833 14.7892316,15.1467435 L15.0751126,14.8608624 C15.5144525,14.4215226 15.5144525,13.709212 15.0751126,13.2698722 L14.3705067,12.5652663 L14.6104398,12.1224862 C14.8175099,11.7403525 14.9847284,11.3376192 15.1090454,10.9199077 L15.2526315,10.4374512 L16.2483398,10.4374512 C16.8696602,10.4374512 17.3733398,9.93377152 17.3733398,9.31245117 L17.3733398,8.9081543 C17.3733398,8.28683395 16.8696602,7.7831543 16.2483398,7.7831543 L15.2526315,7.7831543 L15.1090454,7.3006978 C14.9847284,6.88298629 14.8175099,6.48025293 14.6104398,6.09811927 L14.3705067,5.65533918 L15.0751126,4.95073328 C15.5144525,4.51139346 15.5144525,3.79908285 15.0751126,3.35974303 L14.7892316,3.07386196 C14.3498918,2.63452214 13.6375812,2.63452214 13.1982413,3.07386196 L12.4936354,3.77846786 L12.0508553,3.53853477 C11.6687217,3.33146468 11.2659883,3.16424625 10.8482768,3.03992922 L10.3658203,2.89634315 L10.3658203,1.90063477 C10.3658203,1.27931442 9.86214066,0.775634766 9.24082031,0.775634766 L8.83652344,0.775634766 C8.21520309,0.775634766 7.71152344,1.27931442 7.71152344,1.90063477 Z" id="Combined-Shape"></path>
            <circle id="Oval-15" cx="9.03867188" cy="9.11030273" r="1.8"></circle>
        </g>
    </g>
</svg>
