<?xml version="1.0" encoding="UTF-8"?>
<svg viewBox="0 0 18 18" version="1.1" xmlns="http://www.w3.org/2000/svg" xmlns:xlink="http://www.w3.org/1999/xlink">
    <!-- Generator: Sketch 48.2 (47327) - http://www.bohemiancoding.com/sketch -->
    <title>Path</title>
    <desc>Created with Sketch.</desc>
    <defs></defs>
    <g id="Artboard" stroke="none" stroke-width="1" fill="none" fill-rule="evenodd" transform="translate(-21.000000, -263.000000)">
        <path d="M30.0235895,280.119024 C29.9710016,280.119024 29.9183625,280.110898 29.8676655,280.094647 C28.1635915,279.548785 26.7127981,278.501779 25.5555057,276.982759 C24.6443903,275.786831 23.914854,274.298373 23.3872881,272.558729 C22.4973305,269.624485 22.4871094,267.010522 22.4871094,266.900696 C22.4871094,266.637501 22.6870355,266.417286 22.9490553,266.391988 C22.988509,266.388155 26.9576974,265.980688 29.7232914,263.972279 C29.9023664,263.842163 30.1448637,263.842316 30.3239387,263.97233 C33.0887662,265.980688 37.0584656,266.388155 37.0982259,266.392039 C37.3600413,266.417592 37.5599163,266.637705 37.5599163,266.900696 C37.5599163,267.010522 37.5496952,269.624485 36.6597887,272.55878 C36.1321717,274.298424 35.4026865,275.786882 34.4915711,276.982811 C33.3343299,278.50183 31.8835365,279.548836 30.1794624,280.094698 C30.1287654,280.110898 30.0761775,280.119024 30.0235895,280.119024 L30.0235895,280.119024 Z" id="Path" stroke="#979797" stroke-width="1.35"></path>
    </g>
</svg>
