<?xml version="1.0" encoding="UTF-8"?>
<svg width="17px" height="16px" viewBox="0 0 17 16" version="1.1" xmlns="http://www.w3.org/2000/svg" xmlns:xlink="http://www.w3.org/1999/xlink">
    <!-- Generator: Sketch 48.2 (47327) - http://www.bohemiancoding.com/sketch -->
    <title>Group</title>
    <desc>Created with Sketch.</desc>
    <defs></defs>
    <g id="Artboard-Copy-3" stroke="none" stroke-width="1" fill="none" fill-rule="evenodd" transform="translate(-144.000000, -142.000000)">
        <g id="Group" transform="translate(145.000000, 142.000000)">
            <path d="M6.59607873,9.11636118 L6.59607873,8.76615084 C6.59607873,8.46326471 6.66075656,8.19982083 6.79011418,7.9758113 C6.9194718,7.75180176 7.15609804,7.51359802 7.5,7.26119291 C7.8312817,7.02456312 8.0497666,6.83210711 8.15546124,6.68381911 C8.26115588,6.53553111 8.3140024,6.36989274 8.3140024,6.18689904 C8.3140024,5.98181989 8.23828201,5.82564657 8.08683894,5.7183744 C7.93539588,5.61110223 7.72400977,5.55746695 7.45267428,5.55746695 C6.9794147,5.55746695 6.43990687,5.71206276 5.83413462,6.02125901 L5.31828425,4.98482572 C6.02186349,4.59044274 6.7680249,4.39325421 7.55679087,4.39325421 C8.20673402,4.39325421 8.72336798,4.54942752 9.10670823,4.86177885 C9.49004849,5.17413017 9.68171575,5.59059235 9.68171575,6.11117788 C9.68171575,6.45823491 9.60284033,6.75796148 9.44508714,7.01036659 C9.28733395,7.26277169 8.98760738,7.54672318 8.54589844,7.86222957 C8.24301231,8.0862391 8.05134505,8.25660999 7.97089093,8.37334736 C7.8904368,8.49008472 7.85021034,8.64310302 7.85021034,8.83240685 L7.85021034,9.11636118 L6.59607873,9.11636118 Z M6.44463642,10.7349008 C6.44463642,10.4698755 6.51562429,10.2695319 6.65760216,10.1338642 C6.79958004,9.99819644 7.00623362,9.93036358 7.27756911,9.93036358 C7.53943941,9.93036358 7.74214922,9.99977395 7.88570463,10.1385968 C8.02926003,10.2774196 8.10103666,10.4761856 8.10103666,10.7349008 C8.10103666,10.9841509 8.02847128,11.1805507 7.88333834,11.3241061 C7.7382054,11.4676615 7.53628435,11.5394381 7.27756911,11.5394381 C7.01254375,11.5394381 6.80746767,11.469239 6.66233474,11.3288386 C6.5172018,11.1884383 6.44463642,10.990461 6.44463642,10.7349008 Z" id="?" fill="#979797"></path>
            <circle id="Oval" stroke="#979797" stroke-width="1.07692308" cx="7.5" cy="7.96634615" r="7"></circle>
        </g>
    </g>
</svg>