<svg xmlns="http://www.w3.org/2000/svg" width="48" height="48" fill="none"><path fill="url(#a)" fill-rule="evenodd" d="M24 3A38.39 38.39 0 0 0 3.06 9.14a37.85 37.85 0 0 0 20.9 35.8L24 45l.04-.07a37.85 37.85 0 0 0 20.9-35.8A38.39 38.39 0 0 0 24 3Z" clip-rule="evenodd"/><path stroke="#fff" stroke-linecap="round" stroke-width="1.5" d="M15 17a1 1 0 0 1 1-1h16a1 1 0 0 1 1 1v8a1 1 0 0 1-1 1H16a1 1 0 0 1-1-1v-8Z" clip-rule="evenodd"/><path stroke="#fff" stroke-linecap="round" stroke-width="1.5" d="m16 30 16-18"/><defs><linearGradient id="a" x1="24" x2="24" y1="3" y2="45" gradientUnits="userSpaceOnUse"><stop stop-color="#67B279"/><stop offset="1" stop-color="#589968"/></linearGradient></defs></svg>