<?xml version="1.0" encoding="UTF-8"?>
<svg viewBox="0 0 20 19" version="1.1" xmlns="http://www.w3.org/2000/svg" xmlns:xlink="http://www.w3.org/1999/xlink">
    <!-- Generator: Sketch 48.2 (47327) - http://www.bohemiancoding.com/sketch -->
    <title>Combined Shape</title>
    <desc>Created with Sketch.</desc>
    <defs>
        <path d="M27.6156931,322.288086 L20.7679687,322.288086 L20.7679687,315.416026 L21.9599314,315.416026 C22.5102908,315.416026 22.9564453,314.969871 22.9564453,314.419512 C22.9564453,313.869153 22.5102908,313.422998 21.9599314,313.422998 L20.7679687,313.422998 L20.7679687,306.91711 L25.9398926,306.91711 L25.9398926,306.816368 C25.9398926,305.325199 27.1487238,304.116368 28.6398926,304.116368 C30.1310614,304.116368 31.3398926,305.325199 31.3398926,306.816368 L31.3398926,306.91711 L36.1389445,306.91711 L36.1389445,311.902598 L36.3320801,311.902598 C37.8232489,311.902598 39.0320801,313.111429 39.0320801,314.602598 C39.0320801,316.093767 37.8232489,317.302598 36.3320801,317.302598 L36.1389445,317.302598 L36.1389445,322.288086 L29.6087209,322.288086 L29.6087209,320.57169 C29.6087209,320.02133 29.1625665,319.575176 28.612207,319.575176 C28.0618476,319.575176 27.6156931,320.02133 27.6156931,320.57169 L27.6156931,322.288086 Z" id="path-1"></path>
    </defs>
    <g id="Artboard" stroke="none" stroke-width="1" fill="none" fill-rule="evenodd" transform="translate(-20.000000, -304.000000)">
        <g id="Combined-Shape">
            <use fill-rule="evenodd" xlink:href="#path-1"></use>
            <path stroke="#979797" stroke-width="1.35" d="M26.9406931,321.613086 L26.9406931,320.57169 C26.9406931,319.648538 27.6890554,318.900176 28.612207,318.900176 C29.5353587,318.900176 30.2837209,319.648538 30.2837209,320.57169 L30.2837209,321.613086 L35.4639445,321.613086 L35.4639445,316.627598 L36.3320801,316.627598 C37.4504567,316.627598 38.3570801,315.720975 38.3570801,314.602598 C38.3570801,313.484221 37.4504567,312.577598 36.3320801,312.577598 L35.4639445,312.577598 L35.4639445,307.59211 L30.6648926,307.59211 L30.6648926,306.816368 C30.6648926,305.697991 29.7582692,304.791368 28.6398926,304.791368 C27.521516,304.791368 26.6148926,305.697991 26.6148926,306.816368 L26.6148926,307.59211 L21.4429687,307.59211 L21.4429687,312.747998 L21.9599314,312.747998 C22.8830831,312.747998 23.6314453,313.49636 23.6314453,314.419512 C23.6314453,315.342664 22.8830831,316.091026 21.9599314,316.091026 L21.4429687,316.091026 L21.4429687,321.613086 L26.9406931,321.613086 Z"></path>
        </g>
    </g>
</svg>
