<?xml version="1.0" encoding="UTF-8"?>
<svg viewBox="0 0 49 41" version="1.1" xmlns="http://www.w3.org/2000/svg" xmlns:xlink="http://www.w3.org/1999/xlink">
    <!-- Generator: Sketch 48.2 (47327) - http://www.bohemiancoding.com/sketch -->
    <title>Group 3</title>
    <desc>Created with Sketch.</desc>
    <defs></defs>
    <g id="Artboard" stroke="none" stroke-width="1" fill="none" fill-rule="evenodd" transform="translate(-24.000000, -45.000000)">
        <g id="Group-3" transform="translate(24.000000, 45.000000)">
            <path d="M2.37421875,0.71484375 L46.7742188,0.71484375 C47.7683313,0.71484375 48.5742188,1.5207312 48.5742188,2.51484375 L48.5742188,38.9148438 C48.5742188,39.9089563 47.7683313,40.7148438 46.7742188,40.7148438 L2.37421875,40.7148438 C1.3801062,40.7148438 0.57421875,39.9089563 0.57421875,38.9148438 L0.57421875,2.51484375 C0.57421875,1.5207312 1.3801062,0.71484375 2.37421875,0.71484375 Z" id="Rectangle" fill="#F5A623"></path>
            <path d="M5.20429687,10.1171875 L43.9441406,10.1171875 C44.9382532,10.1171875 45.7441406,10.923075 45.7441406,11.9171875 L45.7441406,35.5125 C45.7441406,36.5066125 44.9382532,37.3125 43.9441406,37.3125 L5.20429688,37.3125 C4.21018433,37.3125 3.40429688,36.5066125 3.40429688,35.5125 L3.40429688,11.9171875 C3.40429688,10.923075 4.21018433,10.1171875 5.20429687,10.1171875 Z" id="Rectangle" fill="#FFFFFF" opacity="0.148833786"></path>
            <g id="Group" transform="translate(17.574219, 16.714844)" stroke="#FFFFFF" stroke-linecap="round" stroke-width="1.5">
                <path d="M1.57471765,2.28909748 L12.242128,12.9565078" id="Line-4"></path>
                <path d="M1.57471765,12.9565078 L12.242128,2.28909748" id="Line-4"></path>
            </g>
        </g>
    </g>
</svg>
